HIERARCHY
ROOT Hips
{
 OFFSET 0.000000 0.000000 0.000000
 CHANNELS 6 Xposition Yposition Zposition Yrotation Xrotation Zrotation
 JOINT Chest
 {
  OFFSET 0.000000 9.585900 0.002600
  CHANNELS 3 Yrotation Xrotation Zrotation
  JOINT Chest2
  {
   OFFSET 0.000000 9.601200 -0.005300
   CHANNELS 3 Yrotation Xrotation Zrotation
   JOINT Chest3
   {
    OFFSET 0.000000 9.561800 0.000000
    CHANNELS 3 Yrotation Xrotation Zrotation
    JOINT Chest4
    {
     OFFSET 0.000000 9.552100 0.000000
     CHANNELS 3 Yrotation Xrotation Zrotation
     JOINT Neck
     {
      OFFSET 0.000000 14.453000 0.000000
      CHANNELS 3 Yrotation Xrotation Zrotation
      JOINT Head
      {
       OFFSET 0.000000 8.936500 -0.011300
       CHANNELS 3 Yrotation Xrotation Zrotation
       End Site
       {
        OFFSET 0.000000 17.073600 -0.006000
       }
      }
     }
     JOINT RightCollar
     {
      OFFSET -2.921100 9.558500 0.000000
      CHANNELS 3 Yrotation Xrotation Zrotation
      JOINT RightShoulder
      {
       OFFSET -13.519700 0.000000 0.000000
       CHANNELS 3 Yrotation Xrotation Zrotation
       JOINT RightElbow
       {
        OFFSET 0.000000 -29.696600 0.000000
        CHANNELS 3 Yrotation Xrotation Zrotation
        JOINT RightWrist
        {
         OFFSET 0.000000 -24.004700 0.000000
         CHANNELS 3 Yrotation Xrotation Zrotation
         End Site
         {
          OFFSET 0.000000 -17.728500 0.000000
         }
        }
       }
      }
     }
     JOINT LeftCollar
     {
      OFFSET 2.921100 9.558500 0.000000
      CHANNELS 3 Yrotation Xrotation Zrotation
      JOINT LeftShoulder
      {
       OFFSET 13.519700 0.000000 0.000000
       CHANNELS 3 Yrotation Xrotation Zrotation
       JOINT LeftElbow
       {
        OFFSET 0.000000 -29.696600 0.000000
        CHANNELS 3 Yrotation Xrotation Zrotation
        JOINT LeftWrist
        {
         OFFSET 0.000000 -24.004700 0.000000
         CHANNELS 3 Yrotation Xrotation Zrotation
         End Site
         {
          OFFSET 0.000000 -17.728500 0.000000
         }
        }
       }
      }
     }
    }
   }
  }
 }
 JOINT RightHip
 {
  OFFSET -7.771700 -0.012900 -0.001300
  CHANNELS 3 Yrotation Xrotation Zrotation
  JOINT RightKnee
  {
   OFFSET 0.000000 -40.869800 0.001200
   CHANNELS 3 Yrotation Xrotation Zrotation
   JOINT RightAnkle
   {
    OFFSET 0.000000 -39.717900 0.002100
    CHANNELS 3 Yrotation Xrotation Zrotation
    JOINT RightToe
    {
     OFFSET 0.000000 -4.965400 11.033500
     CHANNELS 3 Yrotation Xrotation Zrotation
     End Site
     {
      OFFSET 0.000000 -1.423100 5.872300
     }
    }
   }
  }
 }
 JOINT LeftHip
 {
  OFFSET 7.771700 -0.012900 -0.001300
  CHANNELS 3 Yrotation Xrotation Zrotation
  JOINT LeftKnee
  {
   OFFSET 0.000000 -40.869800 0.001200
   CHANNELS 3 Yrotation Xrotation Zrotation
   JOINT LeftAnkle
   {
    OFFSET 0.000000 -39.717900 0.002100
    CHANNELS 3 Yrotation Xrotation Zrotation
    JOINT LeftToe
    {
     OFFSET 0.000000 -4.965400 11.033500
     CHANNELS 3 Yrotation Xrotation Zrotation
     End Site
     {
      OFFSET 0.000000 -1.423100 5.872300
     }
    }
   }
  }
 }
}
MOTION
Frames: 15
Frame Time: 0.008333
-215.305064 57.822675 132.767119 176.826511 -29.652390 -1.980766 2.641994 21.742078 2.508968 0.218071 2.929243 0.273940 0.363597 4.771199 0.449173 1.656509 18.359919 1.949184 -3.490278 14.310402 0.376125 -6.748762 -9.093185 2.018763 3.064148 -0.690255 -2.401215 11.763392 -17.690437 -15.029021 169.108514 -81.187283 -135.148806 15.104342 -16.856436 -49.799670 -8.885152 -4.631738 -1.659851 -3.507347 -14.793097 1.513140 -17.790190 -82.421878 -14.984237 -5.445165 -12.522794 33.238832 4.871038 -45.941697 -2.991965 -11.198975 68.577690 -14.613987 -7.329025 25.294817 -9.838382 -2.497787 -16.848171 17.697287 -7.763490 -43.822181 3.315879 32.502536 70.068321 34.744517 -14.036725 2.629340 -4.608946 -0.162577 0.323105 -0.179114
-215.309005 57.824485 132.769538 176.845746 -29.626823 -1.991718 2.625553 21.720000 2.507787 0.220004 2.937749 0.270595 0.363666 4.767544 0.450811 1.654521 18.358365 1.952158 -3.538353 14.325368 0.346912 -6.765291 -9.095935 2.011232 3.068139 -0.698360 -2.408551 11.648368 -17.553295 -14.885598 169.230905 -81.207538 -135.299740 15.099110 -16.853744 -49.802893 -8.888035 -4.640756 -1.666415 -3.485474 -14.789041 1.420557 -18.310995 -82.406523 -14.438609 -5.449300 -12.499967 33.210301 4.845270 -45.965205 -2.982681 -11.167328 68.566630 -14.598622 -7.320923 25.306786 -9.836777 -2.505484 -16.828079 17.706170 -7.780496 -43.846124 3.321546 32.457837 70.073782 34.694233 -14.035325 2.650592 -4.589810 -0.168848 0.317629 -0.148820
-215.313108 57.826403 132.772643 176.863416 -29.605764 -2.000403 2.610290 21.706387 2.503671 0.219242 2.932721 0.273131 0.365064 4.771912 0.450880 1.646685 18.355087 1.949473 -3.558653 14.331016 0.330571 -6.812317 -9.081051 1.981001 3.088753 -0.710117 -2.433496 11.513968 -17.410779 -14.726417 169.325587 -81.217456 -135.429273 15.087152 -16.853471 -49.799116 -8.886117 -4.645539 -1.673642 -3.465366 -14.785663 1.334217 -18.585668 -82.398093 -14.117615 -5.451544 -12.467211 33.161341 4.812627 -45.982650 -2.966690 -11.142303 68.549093 -14.593583 -7.322809 25.321870 -9.842904 -2.499526 -16.810530 17.713686 -7.796517 -43.865587 3.325315 32.408129 70.078944 34.634867 -14.021476 2.674801 -4.572961 -0.177105 0.305595 -0.135421
-215.318545 57.827567 132.777527 176.879316 -29.581530 -1.999891 2.591475 21.683548 2.492792 0.218568 2.933208 0.272506 0.363163 4.772664 0.449688 1.636107 18.355006 1.942562 -3.575326 14.338877 0.313390 -6.836653 -9.066676 1.954660 3.144049 -0.728143 -2.486450 11.341330 -17.261981 -14.539878 169.420088 -81.226832 -135.559122 15.075293 -16.853609 -49.797804 -8.885167 -4.648849 -1.686650 -3.440938 -14.780008 1.262946 -18.425127 -82.396669 -14.208658 -5.491551 -12.420153 33.082071 4.788332 -46.005877 -2.960098 -11.133166 68.530589 -14.607644 -7.324186 25.342255 -9.844613 -2.460324 -16.745798 17.708413 -7.803156 -43.890319 3.319545 32.361957 70.081169 34.571414 -14.007118 2.705725 -4.537674 -0.186505 0.288768 -0.142952
-215.320671 57.829574 132.781604 176.894062 -29.573857 -2.017308 2.580535 21.674404 2.496748 0.205221 2.934654 0.263936 0.363295 4.772777 0.449949 1.641755 18.355993 1.946232 -3.585917 14.345930 0.300030 -6.863749 -9.046332 1.919881 3.183533 -0.739948 -2.507557 11.195997 -17.110641 -14.394864 169.532314 -81.240631 -135.705008 15.061255 -16.854848 -49.800953 -8.897879 -4.645924 -1.709199 -3.409997 -14.779139 1.228315 -18.309242 -82.390521 -14.281343 -5.516835 -12.385828 33.031574 4.751807 -46.014462 -2.929514 -11.133246 68.511509 -14.625379 -7.315218 25.374651 -9.849880 -2.461857 -16.740959 17.718748 -7.814651 -43.898908 3.330023 32.340747 70.085399 34.554981 -14.026958 2.721678 -4.528309 -0.172199 0.275210 -0.141231
-215.322908 57.831149 132.786339 176.898015 -29.570516 -2.028110 2.567408 21.670839 2.493470 0.211976 2.936154 0.267812 0.365671 4.771836 0.451394 1.640628 18.356298 1.944941 -3.614970 14.362643 0.273750 -6.881938 -9.030184 1.888495 3.223783 -0.755447 -2.533637 11.048404 -16.957179 -14.254948 169.641464 -81.259624 -135.849079 15.039928 -16.856570 -49.802752 -8.912456 -4.644019 -1.720308 -3.390136 -14.779629 1.222013 -17.999370 -82.384977 -14.563465 -5.481533 -12.327881 32.973168 4.721922 -46.023367 -2.896309 -11.134054 68.492832 -14.648226 -7.296564 25.427956 -9.868999 -2.478328 -16.751349 17.748362 -7.824312 -43.902358 3.343733 32.311189 70.092716 34.519839 -14.026107 2.739123 -4.511379 -0.172475 0.264385 -0.135386
-215.326929 57.831532 132.792452 176.895478 -29.564422 -2.025022 2.550204 21.676717 2.463693 0.225593 2.926971 0.284820 0.359049 4.775020 0.446920 1.634109 18.358839 1.939614 -3.635011 14.383066 0.241009 -6.870565 -9.037438 1.893364 3.286654 -0.785124 -2.557318 10.907529 -16.803250 -14.120973 169.717438 -81.281948 -135.962356 15.011582 -16.857157 -49.799090 -8.918569 -4.649026 -1.724404 -3.350111 -14.771932 1.097843 -18.476072 -82.345430 -14.072644 -5.465704 -12.278895 32.924228 4.712586 -46.037236 -2.877230 -11.160814 68.475004 -14.698610 -7.287372 25.471660 -9.873015 -2.468806 -16.737085 17.758045 -7.818253 -43.911395 3.343387 32.264357 70.106330 34.462352 -14.013518 2.756563 -4.478603 -0.175033 0.253927 -0.140456
-215.330412 57.831475 132.798593 176.898056 -29.564116 -2.027640 2.544774 21.680269 2.456716 0.218864 2.933274 0.277323 0.359660 4.777983 0.445973 1.623340 18.386944 1.913772 -3.615262 14.357616 0.258765 -6.880506 -9.031494 1.880200 3.362378 -0.856054 -2.557435 10.809218 -16.712682 -14.037895 169.881388 -81.377839 -136.177004 14.980841 -16.856919 -49.794637 -8.906122 -4.683877 -1.688778 -3.332705 -14.768535 1.044849 -18.336488 -82.323240 -14.201555 -5.460330 -12.247894 32.880259 4.700468 -46.047322 -2.858300 -11.189109 68.467026 -14.743020 -7.283918 25.495536 -9.874165 -2.448796 -16.714008 17.758637 -7.817647 -43.914155 3.343263 32.252054 70.110184 34.444963 -14.012198 2.769902 -4.464230 -0.186245 0.246929 -0.134596
-215.333339 57.831030 132.804441 176.906195 -29.570109 -2.036571 2.538007 21.689730 2.454558 0.216727 2.939392 0.269467 0.360207 4.782413 0.444463 1.626248 18.384657 1.918982 -3.620906 14.360220 0.249618 -6.949546 -8.977129 1.797488 3.421653 -0.900932 -2.579950 10.690906 -16.542794 -13.907074 169.857917 -81.379346 -136.183280 14.948157 -16.857072 -49.794167 -8.910349 -4.694436 -1.679895 -3.322740 -14.759299 0.959102 -18.706861 -82.299645 -13.820572 -5.457052 -12.235358 32.859185 4.690976 -46.051960 -2.840626 -11.229839 68.459949 -14.792461 -7.274570 25.528985 -9.885927 -2.438446 -16.701091 17.773272 -7.823428 -43.910571 3.345865 32.250261 70.111837 34.439676 -14.012006 2.781293 -4.453076 -0.187407 0.244790 -0.120013
-215.335819 57.828994 132.811977 176.894736 -29.567701 -2.039603 2.539248 21.696974 2.445300 0.216798 2.942589 0.268630 0.360157 4.787217 0.443023 1.634628 18.379751 1.923093 -3.644460 14.378802 0.224344 -6.974320 -8.959543 1.759312 3.480530 -0.949227 -2.605121 10.616645 -16.391530 -13.801615 169.890155 -81.401676 -136.257404 14.912263 -16.856519 -49.797123 -8.920922 -4.710002 -1.680900 -3.316602 -14.746958 0.889404 -19.046599 -82.276095 -13.463294 -5.401787 -12.215477 32.822441 4.712426 -46.075509 -2.822589 -11.316994 68.452813 -14.887661 -7.257602 25.591988 -9.879841 -2.410216 -16.680627 17.774163 -7.815762 -43.916715 3.354861 32.250645 70.115519 34.441890 -14.018771 2.790245 -4.448694 -0.179510 0.239246 -0.113392
-215.338984 57.825786 132.820216 176.892074 -29.560380 -2.043673 2.533616 21.697901 2.435264 0.212721 2.957870 0.253364 0.360856 4.793243 0.444987 1.628859 18.401558 1.908022 -3.641330 14.360847 0.228368 -6.965549 -8.970725 1.758507 3.553767 -1.038404 -2.613118 10.569539 -16.317297 -13.743056 170.145145 -81.501903 -136.535797 14.872466 -16.856641 -49.803844 -8.923056 -4.763401 -1.667140 -3.303293 -14.737077 0.884997 -18.774424 -82.261620 -13.724664 -5.383957 -12.190561 32.791574 4.721383 -46.092782 -2.817660 -11.333525 68.433503 -14.909270 -7.232770 25.655007 -9.890314 -2.424908 -16.680306 17.798047 -7.812271 -43.927601 3.361290 32.236581 70.117836 34.424363 -14.020449 2.801644 -4.435875 -0.177836 0.236469 -0.110308
-215.345792 57.821974 132.827786 176.958474 -29.552472 -2.060224 2.462992 21.707502 2.391700 0.215596 2.952665 0.262400 0.359929 4.801543 0.439476 1.629866 18.404519 1.905592 -3.649870 14.368951 0.214314 -6.964137 -8.978679 1.764707 3.603840 -1.096724 -2.630025 10.588652 -16.207307 -13.709882 170.453723 -81.574510 -136.908649 14.827565 -16.856033 -49.816595 -8.923118 -4.785290 -1.653498 -3.306797 -14.732190 0.865084 -18.218690 -82.247276 -14.275423 -5.429543 -12.164129 32.772091 4.694286 -46.105370 -2.847331 -11.341966 68.426336 -14.916739 -7.221829 25.660085 -9.892623 -2.425399 -16.636089 17.806237 -7.849735 -43.937829 3.338703 32.217455 70.117138 34.399623 -14.048184 2.826739 -4.435343 -0.152925 0.219704 -0.096351
-215.349122 57.819248 132.832666 176.965128 -29.563873 -2.067338 2.458203 21.720718 2.392879 0.213361 2.956194 0.253852 0.358099 4.806931 0.433608 1.632774 18.406960 1.905601 -3.661804 14.381031 0.199065 -6.969055 -8.971350 1.742710 3.643200 -1.144843 -2.646533 10.639625 -16.118764 -13.720888 170.987655 -81.669732 -137.505124 14.782018 -16.851499 -49.833808 -8.937124 -4.809332 -1.655622 -3.319730 -14.715747 0.836166 -18.124881 -82.232330 -14.348800 -5.454037 -12.146431 32.758962 4.698015 -46.101162 -2.845970 -11.350638 68.420423 -14.925474 -7.216696 25.684845 -9.891240 -2.422484 -16.615668 17.810521 -7.855292 -43.926691 3.340717 32.213763 70.117675 34.394435 -14.055006 2.825094 -4.433545 -0.150808 0.224838 -0.089453
-215.352266 57.815967 132.837459 176.975090 -29.572040 -2.076854 2.447822 21.732427 2.380925 0.216944 2.954300 0.265511 0.352208 4.814917 0.418230 1.629309 18.414522 1.897656 -3.654794 14.386034 0.190046 -6.964210 -8.960889 1.722407 3.683211 -1.194649 -2.651536 10.647707 -16.072648 -13.717891 171.574432 -81.786646 -138.082105 14.736954 -16.845002 -49.847489 -8.961729 -4.843032 -1.659685 -3.348601 -14.695316 0.807723 -18.264868 -82.210201 -14.160553 -5.486843 -12.131329 32.765697 4.695981 -46.099999 -2.842889 -11.352456 68.416423 -14.928487 -7.215734 25.705291 -9.887832 -2.420225 -16.593077 17.812434 -7.861554 -43.923345 3.345115 32.205851 70.125205 34.387286 -14.067624 2.827927 -4.432444 -0.140844 0.224278 -0.082450
-215.355690 57.813306 132.840183 176.983996 -29.589839 -2.082610 2.432553 21.755515 2.345974 0.222312 2.954755 0.281820 0.350992 4.819404 0.415782 1.620729 18.426783 1.881682 -3.641196 14.387899 0.188844 -6.912311 -8.934633 1.658955 3.723772 -1.248377 -2.648492 10.704392 -16.018711 -13.792606 172.576632 -81.906652 -139.109867 14.690954 -16.839330 -49.858242 -8.964381 -4.874255 -1.642529 -3.347442 -14.679489 0.804346 -18.116259 -82.207161 -14.306819 -5.483491 -12.116026 32.738801 4.695987 -46.088188 -2.844498 -11.353102 68.415585 -14.926827 -7.219265 25.717370 -9.889767 -2.415886 -16.567964 17.814835 -7.856959 -43.908305 3.340479 32.199008 70.133265 34.378678 -14.070942 2.826462 -4.421266 -0.139150 0.226109 -0.079872
